#N canvas -138 38 1352 631 10;
#X obj 237 232 osc~;
#X obj 237 275 *~;
#X obj 269 233 line~;
#X text 340 172 on;
#X text 337 201 off;
#X floatatom 146 150 5 0 0 0 - - -, f 5;
#X obj 237 176 * 1;
#X obj 368 230 osc~;
#X obj 368 273 *~;
#X obj 400 231 line~;
#X text 471 170 on;
#X text 468 199 off;
#X obj 318 355 dac~;
#X obj 368 174 * 2;
#X obj 502 227 osc~;
#X obj 502 270 *~;
#X obj 534 228 line~;
#X text 605 167 on;
#X text 602 196 off;
#X obj 633 225 osc~;
#X obj 633 268 *~;
#X obj 665 226 line~;
#X text 736 165 on;
#X text 733 194 off;
#X obj 502 171 * 3;
#X obj 633 169 * 4;
#X obj 788 152 bng 15 250 50 0 empty empty empty 17 7 0 10 -262144
-1 -1;
#X obj 788 179 bng 15 250 50 0 empty empty empty 17 7 0 10 -262144
-1 -1;
#X msg 665 170 \$1 100;
#X msg 534 172 \$1 100;
#X msg 400 175 \$1 100;
#X msg 269 177 \$1 100;
#X obj 236 671 osc~;
#X obj 236 714 *~;
#X obj 268 672 line~;
#X text 339 611 on;
#X text 336 640 off;
#X floatatom 145 589 5 0 0 0 - - -, f 5;
#X obj 367 669 osc~;
#X obj 367 712 *~;
#X obj 399 670 line~;
#X text 470 609 on;
#X text 467 638 off;
#X obj 317 794 dac~;
#X obj 501 666 osc~;
#X obj 501 709 *~;
#X obj 533 667 line~;
#X text 604 606 on;
#X text 601 635 off;
#X obj 632 664 osc~;
#X obj 632 707 *~;
#X obj 664 665 line~;
#X text 735 604 on;
#X text 732 633 off;
#X obj 787 591 bng 15 250 50 0 empty empty empty 17 7 0 10 -262144
-1 -1;
#X obj 787 618 bng 15 250 50 0 empty empty empty 17 7 0 10 -262144
-1 -1;
#X msg 664 609 \$1 100;
#X msg 533 611 \$1 100;
#X msg 399 614 \$1 100;
#X msg 268 616 \$1 100;
#X obj 236 1167 osc~;
#X obj 236 1210 *~;
#X obj 268 1168 line~;
#X text 339 1107 on;
#X text 336 1136 off;
#X floatatom 145 1085 5 0 0 0 - - -, f 5;
#X obj 367 1165 osc~;
#X obj 367 1208 *~;
#X obj 399 1166 line~;
#X text 470 1105 on;
#X text 467 1134 off;
#X obj 324 1280 dac~;
#X obj 501 1162 osc~;
#X obj 501 1205 *~;
#X obj 533 1163 line~;
#X text 604 1102 on;
#X text 601 1131 off;
#X obj 632 1160 osc~;
#X obj 632 1203 *~;
#X obj 664 1161 line~;
#X text 735 1100 on;
#X text 732 1129 off;
#X obj 787 1087 bng 15 250 50 0 empty empty empty 17 7 0 10 -262144
-1 -1;
#X obj 787 1114 bng 15 250 50 0 empty empty empty 17 7 0 10 -262144
-1 -1;
#X msg 664 1105 \$1 100;
#X msg 533 1107 \$1 100;
#X msg 399 1110 \$1 100;
#X msg 268 1112 \$1 100;
#X obj 236 615 * 5;
#X obj 367 613 * 6;
#X obj 501 610 * 7;
#X obj 632 608 * 8;
#X obj 236 1111 * 9;
#X obj 367 1109 * 10;
#X obj 501 1106 * 11;
#X obj 632 1104 * 12;
#X obj 1057 118 textfile;
#X msg 1083 54 read velocityMatrix.txt;
#X obj 1057 55 bng 15 250 50 0 empty empty empty 17 7 0 10 -262144
-1 -1;
#X obj 1111 164 print list;
#X msg 999 54 rewind;
#X obj 1110 140 print done;
#X obj 1112 248 bng 15 250 50 0 empty empty empty 17 7 0 10 -262144
-1 -1;
#X obj 1080 272 bng 15 250 50 0 empty empty empty 17 7 0 10 -262144
-1 -1;
#X obj 1080 292 float;
#X floatatom 1080 314 5 0 0 0 - - -, f 5;
#X obj 1128 292 + 1;
#X msg 1112 267 0;
#X obj 269 105 spigot 0;
#X floatatom 269 127 5 0 0 0 - - -, f 5;
#X obj 1057 193 t f b f;
#X obj 322 57 sel 1;
#X msg 354 79 0;
#X msg 322 79 1;
#X obj 988 522 spigot 0;
#X floatatom 988 544 5 0 0 0 - - -, f 5;
#X msg 1073 496 0;
#X msg 1041 496 1;
#X obj 1081 527 spigot 0;
#X floatatom 1081 549 5 0 0 0 - - -, f 5;
#X msg 1166 501 0;
#X msg 1134 501 1;
#X obj 1041 474 sel 2;
#X obj 1134 479 sel 3;
#X obj 1212 538 spigot 0;
#X floatatom 1212 560 5 0 0 0 - - -, f 5;
#X msg 1297 512 0;
#X msg 1265 512 1;
#X obj 1265 490 sel 4;
#X obj 1057 220 s amp;
#X obj 269 78 r amp;
#X obj 987 493 r amp;
#X obj 1103 494 r amp;
#X obj 1212 512 r amp;
#X obj 322 25 r partial;
#X obj 1080 334 s partial;
#X obj 1041 452 r partial;
#X obj 1134 455 r partial;
#X obj 1265 463 r partial;
#X obj 1112 226 sel 100;
#X obj 400 106 spigot 0;
#X floatatom 400 128 5 0 0 0 - - -, f 5;
#X msg 485 80 0;
#X msg 453 80 1;
#X obj 400 79 r amp;
#X obj 453 26 r partial;
#X obj 534 104 spigot 0;
#X floatatom 534 126 5 0 0 0 - - -, f 5;
#X msg 619 78 0;
#X msg 587 78 1;
#X obj 534 77 r amp;
#X obj 587 24 r partial;
#X obj 665 102 spigot 0;
#X floatatom 665 124 5 0 0 0 - - -, f 5;
#X msg 750 76 0;
#X msg 718 76 1;
#X obj 665 75 r amp;
#X obj 718 22 r partial;
#X obj 453 58 sel 2;
#X obj 587 56 sel 3;
#X obj 718 54 sel 4;
#X obj 895 72 metro 1;
#X obj 895 51 tgl 15 0 empty empty empty 17 7 0 10 -262144 -1 -1 0
1;
#X obj 1157 332 sel 27;
#X obj 927 26 r stop;
#X obj 1157 357 s stop;
#X obj 873 22 bng 15 250 50 0 empty empty empty 17 7 0 10 -262144 -1
-1;
#X obj 268 555 spigot 0;
#X floatatom 268 577 5 0 0 0 - - -, f 5;
#X msg 353 529 0;
#X msg 321 529 1;
#X obj 268 528 r amp;
#X obj 321 475 r partial;
#X obj 399 556 spigot 0;
#X floatatom 399 578 5 0 0 0 - - -, f 5;
#X msg 484 530 0;
#X msg 452 530 1;
#X obj 399 529 r amp;
#X obj 452 476 r partial;
#X obj 533 554 spigot 0;
#X floatatom 533 576 5 0 0 0 - - -, f 5;
#X msg 618 528 0;
#X msg 586 528 1;
#X obj 533 527 r amp;
#X obj 586 474 r partial;
#X obj 664 552 spigot 0;
#X floatatom 664 574 5 0 0 0 - - -, f 5;
#X msg 749 526 0;
#X msg 717 526 1;
#X obj 664 525 r amp;
#X obj 717 472 r partial;
#X obj 452 508 sel 6;
#X obj 586 506 sel 7;
#X obj 717 504 sel 8;
#X obj 321 507 sel 5;
#X obj 268 1049 spigot 0;
#X floatatom 268 1071 5 0 0 0 - - -, f 5;
#X msg 353 1023 0;
#X msg 321 1023 1;
#X obj 268 1022 r amp;
#X obj 321 969 r partial;
#X obj 399 1050 spigot 0;
#X floatatom 399 1072 5 0 0 0 - - -, f 5;
#X msg 484 1024 0;
#X msg 452 1024 1;
#X obj 399 1023 r amp;
#X obj 452 970 r partial;
#X obj 533 1048 spigot 0;
#X floatatom 533 1070 5 0 0 0 - - -, f 5;
#X msg 618 1022 0;
#X msg 586 1022 1;
#X obj 533 1021 r amp;
#X obj 586 968 r partial;
#X obj 664 1046 spigot 0;
#X floatatom 664 1068 5 0 0 0 - - -, f 5;
#X msg 749 1020 0;
#X msg 717 1020 1;
#X obj 664 1019 r amp;
#X obj 717 966 r partial;
#X obj 321 1001 sel 9;
#X obj 452 1002 sel 10;
#X obj 586 1000 sel 11;
#X obj 717 998 sel 12;
#X obj 853 872 osc~;
#X obj 853 915 *~;
#X obj 885 873 line~;
#X text 956 812 on;
#X text 953 841 off;
#X floatatom 762 790 5 0 0 0 - - -, f 5;
#X obj 984 870 osc~;
#X obj 984 913 *~;
#X obj 1016 871 line~;
#X text 1087 810 on;
#X text 1084 839 off;
#X obj 941 985 dac~;
#X obj 1118 867 osc~;
#X obj 1118 910 *~;
#X obj 1150 868 line~;
#X text 1221 807 on;
#X text 1218 836 off;
#X obj 1249 865 osc~;
#X obj 1249 908 *~;
#X obj 1281 866 line~;
#X text 1352 805 on;
#X text 1349 834 off;
#X obj 1404 792 bng 15 250 50 0 empty empty empty 17 7 0 10 -262144
-1 -1;
#X obj 1404 819 bng 15 250 50 0 empty empty empty 17 7 0 10 -262144
-1 -1;
#X msg 1281 810 \$1 100;
#X msg 1150 812 \$1 100;
#X msg 1016 815 \$1 100;
#X msg 885 817 \$1 100;
#X obj 853 816 * 9;
#X obj 984 814 * 10;
#X obj 1118 811 * 11;
#X obj 1249 809 * 12;
#X obj 885 754 spigot 0;
#X floatatom 885 776 5 0 0 0 - - -, f 5;
#X msg 970 728 0;
#X msg 938 728 1;
#X obj 885 727 r amp;
#X obj 938 674 r partial;
#X obj 1016 755 spigot 0;
#X floatatom 1016 777 5 0 0 0 - - -, f 5;
#X msg 1101 729 0;
#X msg 1069 729 1;
#X obj 1016 728 r amp;
#X obj 1069 675 r partial;
#X obj 1150 753 spigot 0;
#X floatatom 1150 775 5 0 0 0 - - -, f 5;
#X msg 1235 727 0;
#X msg 1203 727 1;
#X obj 1150 726 r amp;
#X obj 1203 673 r partial;
#X obj 1281 751 spigot 0;
#X floatatom 1281 773 5 0 0 0 - - -, f 5;
#X msg 1366 725 0;
#X msg 1334 725 1;
#X obj 1281 724 r amp;
#X obj 1334 671 r partial;
#X obj 850 1239 osc~;
#X obj 850 1282 *~;
#X obj 882 1240 line~;
#X text 953 1179 on;
#X text 950 1208 off;
#X floatatom 759 1157 5 0 0 0 - - -, f 5;
#X obj 981 1237 osc~;
#X obj 981 1280 *~;
#X obj 1013 1238 line~;
#X text 1084 1177 on;
#X text 1081 1206 off;
#X obj 938 1352 dac~;
#X obj 1115 1234 osc~;
#X obj 1115 1277 *~;
#X obj 1147 1235 line~;
#X text 1218 1174 on;
#X text 1215 1203 off;
#X obj 1246 1232 osc~;
#X obj 1246 1275 *~;
#X obj 1278 1233 line~;
#X text 1349 1172 on;
#X text 1346 1201 off;
#X obj 1401 1159 bng 15 250 50 0 empty empty empty 17 7 0 10 -262144
-1 -1;
#X obj 1401 1186 bng 15 250 50 0 empty empty empty 17 7 0 10 -262144
-1 -1;
#X msg 1278 1177 \$1 100;
#X msg 1147 1179 \$1 100;
#X msg 1013 1182 \$1 100;
#X msg 882 1184 \$1 100;
#X obj 850 1183 * 9;
#X obj 981 1181 * 10;
#X obj 1115 1178 * 11;
#X obj 1246 1176 * 12;
#X obj 882 1121 spigot 0;
#X floatatom 882 1143 5 0 0 0 - - -, f 5;
#X msg 967 1095 0;
#X msg 935 1095 1;
#X obj 882 1094 r amp;
#X obj 935 1041 r partial;
#X obj 1013 1122 spigot 0;
#X floatatom 1013 1144 5 0 0 0 - - -, f 5;
#X msg 1098 1096 0;
#X msg 1066 1096 1;
#X obj 1013 1095 r amp;
#X obj 1066 1042 r partial;
#X obj 1147 1120 spigot 0;
#X floatatom 1147 1142 5 0 0 0 - - -, f 5;
#X msg 1232 1094 0;
#X msg 1200 1094 1;
#X obj 1147 1093 r amp;
#X obj 1200 1040 r partial;
#X obj 1278 1118 spigot 0;
#X floatatom 1278 1140 5 0 0 0 - - -, f 5;
#X msg 1363 1092 0;
#X msg 1331 1092 1;
#X obj 1278 1091 r amp;
#X obj 1331 1038 r partial;
#X obj 867 1589 osc~;
#X obj 867 1632 *~;
#X obj 899 1590 line~;
#X text 970 1529 on;
#X text 967 1558 off;
#X floatatom 776 1507 5 0 0 0 - - -, f 5;
#X obj 998 1587 osc~;
#X obj 998 1630 *~;
#X obj 1030 1588 line~;
#X text 1101 1527 on;
#X text 1098 1556 off;
#X obj 955 1702 dac~;
#X obj 1132 1584 osc~;
#X obj 1132 1627 *~;
#X obj 1164 1585 line~;
#X text 1235 1524 on;
#X text 1232 1553 off;
#X obj 1263 1582 osc~;
#X obj 1263 1625 *~;
#X obj 1295 1583 line~;
#X text 1366 1522 on;
#X text 1363 1551 off;
#X obj 1418 1509 bng 15 250 50 0 empty empty empty 17 7 0 10 -262144
-1 -1;
#X obj 1418 1536 bng 15 250 50 0 empty empty empty 17 7 0 10 -262144
-1 -1;
#X msg 1295 1527 \$1 100;
#X msg 1164 1529 \$1 100;
#X msg 1030 1532 \$1 100;
#X msg 899 1534 \$1 100;
#X obj 867 1533 * 9;
#X obj 998 1531 * 10;
#X obj 1132 1528 * 11;
#X obj 1263 1526 * 12;
#X obj 899 1471 spigot 0;
#X floatatom 899 1493 5 0 0 0 - - -, f 5;
#X msg 984 1445 0;
#X msg 952 1445 1;
#X obj 899 1444 r amp;
#X obj 952 1391 r partial;
#X obj 1030 1472 spigot 0;
#X floatatom 1030 1494 5 0 0 0 - - -, f 5;
#X msg 1115 1446 0;
#X msg 1083 1446 1;
#X obj 1030 1445 r amp;
#X obj 1083 1392 r partial;
#X obj 1164 1470 spigot 0;
#X floatatom 1164 1492 5 0 0 0 - - -, f 5;
#X msg 1249 1444 0;
#X msg 1217 1444 1;
#X obj 1164 1443 r amp;
#X obj 1217 1390 r partial;
#X obj 1295 1468 spigot 0;
#X floatatom 1295 1490 5 0 0 0 - - -, f 5;
#X msg 1380 1442 0;
#X msg 1348 1442 1;
#X obj 1295 1441 r amp;
#X obj 1348 1388 r partial;
#X obj 830 122 s freq;
#X floatatom 830 101 5 0 0 0 - - -, f 5;
#X obj 146 127 r freq;
#X obj 145 565 r freq;
#X obj 145 565 r freq;
#X obj 145 1054 r freq;
#X obj 145 1054 r freq;
#X obj 145 565 r freq;
#X obj 145 565 r freq;
#X obj 762 760 r freq;
#X obj 762 760 r freq;
#X obj 796 1136 r freq;
#X obj 796 1136 r freq;
#X obj 778 1480 r freq;
#X obj 778 1480 r freq;
#X obj 938 706 sel 13;
#X obj 1069 707 sel 14;
#X obj 1203 705 sel 15;
#X obj 1334 704 sel 16;
#X obj 935 1073 sel 17;
#X obj 1066 1074 sel 18;
#X obj 1200 1072 sel 19;
#X obj 1331 1070 sel 20;
#X obj 952 1423 sel 21;
#X obj 1083 1424 sel 22;
#X obj 1217 1422 sel 23;
#X obj 1348 1420 sel 24;
#X msg 288 202 0 1000;
#X msg 419 200 0 1000;
#X msg 553 197 0 1000;
#X msg 684 195 0 1000;
#X msg 286 641 0 1000;
#X msg 418 639 0 1000;
#X msg 552 636 0 1000;
#X msg 683 634 0 1000;
#X msg 288 1137 0 1000;
#X msg 418 1135 0 1000;
#X msg 552 1132 0 1000;
#X msg 683 1130 0 1000;
#X msg 904 842 0 1000;
#X msg 1035 840 0 1000;
#X msg 1169 837 0 1000;
#X msg 1300 835 0 1000;
#X msg 901 1209 0 1000;
#X msg 1033 1207 0 1000;
#X msg 1166 1204 0 1000;
#X msg 1297 1202 0 1000;
#X msg 918 1559 0 1000;
#X msg 1049 1557 0 1000;
#X msg 1183 1554 0 1000;
#X msg 1314 1552 0 1000;
#X obj 812 160 r stop;
#X obj 809 591 r stop;
#X obj 810 1092 r stop;
#X obj 1398 754 r stop;
#X obj 1381 1138 r stop;
#X obj 1386 1484 r stop;
#X obj 1124 117 s done;
#X obj 999 30 r done;
#X text 742 1 PRESS THIS BUTTON vvv;
#X connect 0 0 1 0;
#X connect 1 0 12 0;
#X connect 1 0 12 1;
#X connect 2 0 1 1;
#X connect 5 0 6 0;
#X connect 5 0 13 0;
#X connect 5 0 24 0;
#X connect 5 0 25 0;
#X connect 6 0 0 0;
#X connect 7 0 8 0;
#X connect 8 0 12 0;
#X connect 8 0 12 1;
#X connect 9 0 8 1;
#X connect 13 0 7 0;
#X connect 14 0 15 0;
#X connect 15 0 12 0;
#X connect 15 0 12 1;
#X connect 16 0 15 1;
#X connect 19 0 20 0;
#X connect 20 0 12 0;
#X connect 20 0 12 1;
#X connect 21 0 20 1;
#X connect 24 0 14 0;
#X connect 25 0 19 0;
#X connect 26 0 28 0;
#X connect 26 0 29 0;
#X connect 26 0 30 0;
#X connect 26 0 31 0;
#X connect 27 0 421 0;
#X connect 27 0 420 0;
#X connect 27 0 419 0;
#X connect 27 0 418 0;
#X connect 28 0 21 0;
#X connect 29 0 16 0;
#X connect 30 0 9 0;
#X connect 31 0 2 0;
#X connect 32 0 33 0;
#X connect 33 0 43 0;
#X connect 33 0 43 1;
#X connect 34 0 33 1;
#X connect 37 0 88 0;
#X connect 37 0 89 0;
#X connect 37 0 90 0;
#X connect 37 0 91 0;
#X connect 38 0 39 0;
#X connect 39 0 43 0;
#X connect 39 0 43 1;
#X connect 40 0 39 1;
#X connect 44 0 45 0;
#X connect 45 0 43 0;
#X connect 45 0 43 1;
#X connect 46 0 45 1;
#X connect 49 0 50 0;
#X connect 50 0 43 0;
#X connect 50 0 43 1;
#X connect 51 0 50 1;
#X connect 54 0 56 0;
#X connect 54 0 57 0;
#X connect 54 0 58 0;
#X connect 54 0 59 0;
#X connect 55 0 425 0;
#X connect 55 0 424 0;
#X connect 55 0 423 0;
#X connect 55 0 422 0;
#X connect 56 0 51 0;
#X connect 57 0 46 0;
#X connect 58 0 40 0;
#X connect 59 0 34 0;
#X connect 60 0 61 0;
#X connect 61 0 71 0;
#X connect 61 0 71 1;
#X connect 62 0 61 1;
#X connect 65 0 92 0;
#X connect 65 0 93 0;
#X connect 65 0 94 0;
#X connect 65 0 95 0;
#X connect 66 0 67 0;
#X connect 67 0 71 0;
#X connect 67 0 71 1;
#X connect 68 0 67 1;
#X connect 72 0 73 0;
#X connect 73 0 71 0;
#X connect 73 0 71 1;
#X connect 74 0 73 1;
#X connect 77 0 78 0;
#X connect 78 0 71 0;
#X connect 78 0 71 1;
#X connect 79 0 78 1;
#X connect 82 0 84 0;
#X connect 82 0 85 0;
#X connect 82 0 86 0;
#X connect 82 0 87 0;
#X connect 83 0 429 0;
#X connect 83 0 428 0;
#X connect 83 0 427 0;
#X connect 83 0 426 0;
#X connect 84 0 79 0;
#X connect 85 0 74 0;
#X connect 86 0 68 0;
#X connect 87 0 62 0;
#X connect 88 0 32 0;
#X connect 89 0 38 0;
#X connect 90 0 44 0;
#X connect 91 0 49 0;
#X connect 92 0 60 0;
#X connect 93 0 66 0;
#X connect 94 0 72 0;
#X connect 95 0 77 0;
#X connect 96 0 99 0;
#X connect 96 0 110 0;
#X connect 96 1 101 0;
#X connect 96 1 448 0;
#X connect 97 0 96 0;
#X connect 98 0 96 0;
#X connect 100 0 96 0;
#X connect 102 0 107 0;
#X connect 103 0 104 0;
#X connect 104 0 105 0;
#X connect 104 0 106 0;
#X connect 105 0 135 0;
#X connect 105 0 163 0;
#X connect 106 0 104 1;
#X connect 107 0 104 1;
#X connect 108 0 109 0;
#X connect 109 0 31 0;
#X connect 110 0 129 0;
#X connect 110 1 103 0;
#X connect 110 2 139 0;
#X connect 111 0 113 0;
#X connect 111 1 112 0;
#X connect 112 0 108 1;
#X connect 113 0 108 1;
#X connect 114 0 115 0;
#X connect 116 0 114 1;
#X connect 117 0 114 1;
#X connect 118 0 119 0;
#X connect 120 0 118 1;
#X connect 121 0 118 1;
#X connect 122 0 117 0;
#X connect 122 1 116 0;
#X connect 123 0 121 0;
#X connect 123 1 120 0;
#X connect 124 0 125 0;
#X connect 126 0 124 1;
#X connect 127 0 124 1;
#X connect 128 0 127 0;
#X connect 128 1 126 0;
#X connect 130 0 108 0;
#X connect 131 0 114 0;
#X connect 132 0 118 0;
#X connect 133 0 124 0;
#X connect 134 0 111 0;
#X connect 136 0 122 0;
#X connect 137 0 123 0;
#X connect 138 0 128 0;
#X connect 139 0 102 0;
#X connect 140 0 141 0;
#X connect 141 0 30 0;
#X connect 142 0 140 1;
#X connect 143 0 140 1;
#X connect 144 0 140 0;
#X connect 145 0 158 0;
#X connect 146 0 147 0;
#X connect 147 0 29 0;
#X connect 148 0 146 1;
#X connect 149 0 146 1;
#X connect 150 0 146 0;
#X connect 151 0 159 0;
#X connect 152 0 153 0;
#X connect 153 0 28 0;
#X connect 154 0 152 1;
#X connect 155 0 152 1;
#X connect 156 0 152 0;
#X connect 157 0 160 0;
#X connect 158 0 143 0;
#X connect 158 1 142 0;
#X connect 159 0 149 0;
#X connect 159 1 148 0;
#X connect 160 0 155 0;
#X connect 160 1 154 0;
#X connect 161 0 96 0;
#X connect 162 0 161 0;
#X connect 163 0 165 0;
#X connect 164 0 162 0;
#X connect 166 0 162 0;
#X connect 167 0 168 0;
#X connect 168 0 59 0;
#X connect 169 0 167 1;
#X connect 170 0 167 1;
#X connect 171 0 167 0;
#X connect 172 0 194 0;
#X connect 173 0 174 0;
#X connect 174 0 58 0;
#X connect 175 0 173 1;
#X connect 176 0 173 1;
#X connect 177 0 173 0;
#X connect 178 0 191 0;
#X connect 179 0 180 0;
#X connect 180 0 57 0;
#X connect 181 0 179 1;
#X connect 182 0 179 1;
#X connect 183 0 179 0;
#X connect 184 0 192 0;
#X connect 185 0 186 0;
#X connect 186 0 56 0;
#X connect 187 0 185 1;
#X connect 188 0 185 1;
#X connect 189 0 185 0;
#X connect 190 0 193 0;
#X connect 191 0 176 0;
#X connect 191 1 175 0;
#X connect 192 0 182 0;
#X connect 192 1 181 0;
#X connect 193 0 188 0;
#X connect 193 1 187 0;
#X connect 194 0 170 0;
#X connect 194 1 169 0;
#X connect 195 0 196 0;
#X connect 196 0 87 0;
#X connect 197 0 195 1;
#X connect 198 0 195 1;
#X connect 199 0 195 0;
#X connect 200 0 219 0;
#X connect 201 0 202 0;
#X connect 202 0 86 0;
#X connect 203 0 201 1;
#X connect 204 0 201 1;
#X connect 205 0 201 0;
#X connect 206 0 220 0;
#X connect 207 0 208 0;
#X connect 208 0 85 0;
#X connect 209 0 207 1;
#X connect 210 0 207 1;
#X connect 211 0 207 0;
#X connect 212 0 221 0;
#X connect 213 0 214 0;
#X connect 214 0 84 0;
#X connect 215 0 213 1;
#X connect 216 0 213 1;
#X connect 217 0 213 0;
#X connect 218 0 222 0;
#X connect 219 0 198 0;
#X connect 219 1 197 0;
#X connect 220 0 204 0;
#X connect 220 1 203 0;
#X connect 221 0 210 0;
#X connect 221 1 209 0;
#X connect 222 0 216 0;
#X connect 222 1 215 0;
#X connect 223 0 224 0;
#X connect 224 0 234 0;
#X connect 224 0 234 1;
#X connect 225 0 224 1;
#X connect 228 0 251 0;
#X connect 228 0 252 0;
#X connect 228 0 253 0;
#X connect 228 0 254 0;
#X connect 229 0 230 0;
#X connect 230 0 234 0;
#X connect 230 0 234 1;
#X connect 231 0 230 1;
#X connect 235 0 236 0;
#X connect 236 0 234 0;
#X connect 236 0 234 1;
#X connect 237 0 236 1;
#X connect 240 0 241 0;
#X connect 241 0 234 0;
#X connect 241 0 234 1;
#X connect 242 0 241 1;
#X connect 245 0 247 0;
#X connect 245 0 248 0;
#X connect 245 0 249 0;
#X connect 245 0 250 0;
#X connect 246 0 433 0;
#X connect 246 0 432 0;
#X connect 246 0 431 0;
#X connect 246 0 430 0;
#X connect 247 0 242 0;
#X connect 248 0 237 0;
#X connect 249 0 231 0;
#X connect 250 0 225 0;
#X connect 251 0 223 0;
#X connect 252 0 229 0;
#X connect 253 0 235 0;
#X connect 254 0 240 0;
#X connect 255 0 256 0;
#X connect 256 0 250 0;
#X connect 257 0 255 1;
#X connect 258 0 255 1;
#X connect 259 0 255 0;
#X connect 260 0 406 0;
#X connect 261 0 262 0;
#X connect 262 0 249 0;
#X connect 263 0 261 1;
#X connect 264 0 261 1;
#X connect 265 0 261 0;
#X connect 266 0 407 0;
#X connect 267 0 268 0;
#X connect 268 0 248 0;
#X connect 269 0 267 1;
#X connect 270 0 267 1;
#X connect 271 0 267 0;
#X connect 272 0 408 0;
#X connect 273 0 274 0;
#X connect 274 0 247 0;
#X connect 275 0 273 1;
#X connect 276 0 273 1;
#X connect 277 0 273 0;
#X connect 278 0 409 0;
#X connect 279 0 280 0;
#X connect 280 0 290 0;
#X connect 280 0 290 1;
#X connect 281 0 280 1;
#X connect 284 0 307 0;
#X connect 284 0 308 0;
#X connect 284 0 309 0;
#X connect 284 0 310 0;
#X connect 285 0 286 0;
#X connect 286 0 290 0;
#X connect 286 0 290 1;
#X connect 287 0 286 1;
#X connect 291 0 292 0;
#X connect 292 0 290 0;
#X connect 292 0 290 1;
#X connect 293 0 292 1;
#X connect 296 0 297 0;
#X connect 297 0 290 0;
#X connect 297 0 290 1;
#X connect 298 0 297 1;
#X connect 301 0 303 0;
#X connect 301 0 304 0;
#X connect 301 0 305 0;
#X connect 301 0 306 0;
#X connect 302 0 437 0;
#X connect 302 0 436 0;
#X connect 302 0 435 0;
#X connect 302 0 434 0;
#X connect 303 0 298 0;
#X connect 304 0 293 0;
#X connect 305 0 287 0;
#X connect 306 0 281 0;
#X connect 307 0 279 0;
#X connect 308 0 285 0;
#X connect 309 0 291 0;
#X connect 310 0 296 0;
#X connect 311 0 312 0;
#X connect 312 0 306 0;
#X connect 313 0 311 1;
#X connect 314 0 311 1;
#X connect 315 0 311 0;
#X connect 316 0 410 0;
#X connect 317 0 318 0;
#X connect 318 0 305 0;
#X connect 319 0 317 1;
#X connect 320 0 317 1;
#X connect 321 0 317 0;
#X connect 322 0 411 0;
#X connect 323 0 324 0;
#X connect 324 0 304 0;
#X connect 325 0 323 1;
#X connect 326 0 323 1;
#X connect 327 0 323 0;
#X connect 328 0 412 0;
#X connect 329 0 330 0;
#X connect 330 0 303 0;
#X connect 331 0 329 1;
#X connect 332 0 329 1;
#X connect 333 0 329 0;
#X connect 334 0 413 0;
#X connect 335 0 336 0;
#X connect 336 0 346 0;
#X connect 336 0 346 1;
#X connect 337 0 336 1;
#X connect 340 0 363 0;
#X connect 340 0 364 0;
#X connect 340 0 365 0;
#X connect 340 0 366 0;
#X connect 341 0 342 0;
#X connect 342 0 346 0;
#X connect 342 0 346 1;
#X connect 343 0 342 1;
#X connect 347 0 348 0;
#X connect 348 0 346 0;
#X connect 348 0 346 1;
#X connect 349 0 348 1;
#X connect 352 0 353 0;
#X connect 353 0 346 0;
#X connect 353 0 346 1;
#X connect 354 0 353 1;
#X connect 357 0 359 0;
#X connect 357 0 360 0;
#X connect 357 0 361 0;
#X connect 357 0 362 0;
#X connect 358 0 441 0;
#X connect 358 0 440 0;
#X connect 358 0 439 0;
#X connect 358 0 438 0;
#X connect 359 0 354 0;
#X connect 360 0 349 0;
#X connect 361 0 343 0;
#X connect 362 0 337 0;
#X connect 363 0 335 0;
#X connect 364 0 341 0;
#X connect 365 0 347 0;
#X connect 366 0 352 0;
#X connect 367 0 368 0;
#X connect 368 0 362 0;
#X connect 369 0 367 1;
#X connect 370 0 367 1;
#X connect 371 0 367 0;
#X connect 372 0 414 0;
#X connect 373 0 374 0;
#X connect 374 0 361 0;
#X connect 375 0 373 1;
#X connect 376 0 373 1;
#X connect 377 0 373 0;
#X connect 378 0 415 0;
#X connect 379 0 380 0;
#X connect 380 0 360 0;
#X connect 381 0 379 1;
#X connect 382 0 379 1;
#X connect 383 0 379 0;
#X connect 384 0 416 0;
#X connect 385 0 386 0;
#X connect 386 0 359 0;
#X connect 387 0 385 1;
#X connect 388 0 385 1;
#X connect 389 0 385 0;
#X connect 390 0 417 0;
#X connect 392 0 391 0;
#X connect 393 0 5 0;
#X connect 394 0 37 0;
#X connect 396 0 65 0;
#X connect 400 0 228 0;
#X connect 402 0 284 0;
#X connect 404 0 340 0;
#X connect 406 0 258 0;
#X connect 406 1 257 0;
#X connect 407 0 264 0;
#X connect 407 1 263 0;
#X connect 408 0 270 0;
#X connect 408 1 269 0;
#X connect 409 0 276 0;
#X connect 409 1 275 0;
#X connect 410 0 314 0;
#X connect 410 1 313 0;
#X connect 411 0 320 0;
#X connect 411 1 319 0;
#X connect 412 0 326 0;
#X connect 412 1 325 0;
#X connect 413 0 332 0;
#X connect 413 1 331 0;
#X connect 414 0 370 0;
#X connect 414 1 369 0;
#X connect 415 0 376 0;
#X connect 415 1 375 0;
#X connect 416 0 382 0;
#X connect 416 1 381 0;
#X connect 417 0 388 0;
#X connect 417 1 387 0;
#X connect 418 0 2 0;
#X connect 419 0 9 0;
#X connect 420 0 16 0;
#X connect 421 0 21 0;
#X connect 422 0 34 0;
#X connect 423 0 40 0;
#X connect 424 0 46 0;
#X connect 425 0 51 0;
#X connect 426 0 62 0;
#X connect 427 0 68 0;
#X connect 428 0 74 0;
#X connect 429 0 79 0;
#X connect 430 0 225 0;
#X connect 431 0 231 0;
#X connect 432 0 237 0;
#X connect 433 0 242 0;
#X connect 434 0 281 0;
#X connect 435 0 287 0;
#X connect 436 0 293 0;
#X connect 437 0 298 0;
#X connect 438 0 337 0;
#X connect 439 0 343 0;
#X connect 440 0 349 0;
#X connect 441 0 354 0;
#X connect 442 0 27 0;
#X connect 443 0 55 0;
#X connect 444 0 83 0;
#X connect 445 0 246 0;
#X connect 446 0 302 0;
#X connect 447 0 358 0;
#X connect 449 0 100 0;
